<mxfile host="app.diagrams.net" agent="Mozilla/5.0 (Windows NT 10.0; Win64; x64) AppleWebKit/537.36 (KHTML, like Gecko) Chrome/127.0.0.0 Safari/537.36" version="24.7.7">
  <diagram name="Page-1" id="ckSQHCGGWIVQb4_ixcn8">
    <mxGraphModel dx="1134" dy="703" grid="1" gridSize="10" guides="1" tooltips="1" connect="1" arrows="1" fold="1" page="1" pageScale="1" pageWidth="827" pageHeight="1169" background="none" math="0" shadow="1">
      <root>
        <mxCell id="0" />
        <mxCell id="1" parent="0" />
        <mxCell id="ZZylFMLrcl4kth04YLES-1" value="&lt;font style=&quot;font-size: 15px;&quot;&gt;EmployeeInfo()&lt;/font&gt;&lt;div style=&quot;font-size: 15px;&quot;&gt;&lt;font style=&quot;font-size: 15px;&quot;&gt;EmployeeAddress()&lt;/font&gt;&lt;/div&gt;&lt;div style=&quot;font-size: 15px;&quot;&gt;&lt;font style=&quot;font-size: 15px;&quot;&gt;EmployeeDetails()&lt;/font&gt;&lt;/div&gt;" style="rounded=0;whiteSpace=wrap;html=1;labelBackgroundColor=none;fillColor=#FAD9D5;strokeColor=#D0CEE2;fontColor=#1A1A1A;" vertex="1" parent="1">
          <mxGeometry x="50.5" y="310" width="200" height="110" as="geometry" />
        </mxCell>
        <mxCell id="ZZylFMLrcl4kth04YLES-2" value="1.Abstract method&lt;div&gt;&amp;nbsp; &amp;nbsp; &amp;nbsp; &amp;nbsp; &amp;nbsp;&lt;font style=&quot;font-size: 20px;&quot;&gt;.&lt;/font&gt;&lt;b&gt;&amp;nbsp;&lt;/b&gt;AccountDetails()&lt;/div&gt;&lt;div&gt;2.Implemented Method&lt;/div&gt;&lt;div&gt;&lt;font style=&quot;font-size: 20px;&quot;&gt;&amp;nbsp; &amp;nbsp;.&lt;/font&gt;&lt;b&gt;&amp;nbsp;&lt;/b&gt;BankDetails()&lt;br&gt;&lt;/div&gt;&lt;div&gt;&lt;br&gt;&lt;/div&gt;" style="rounded=0;whiteSpace=wrap;html=1;labelBackgroundColor=none;fillColor=#FAD9D5;strokeColor=#D0CEE2;fontColor=#1A1A1A;" vertex="1" parent="1">
          <mxGeometry x="25" y="480" width="245" height="130" as="geometry" />
        </mxCell>
        <mxCell id="ZZylFMLrcl4kth04YLES-36" style="edgeStyle=elbowEdgeStyle;rounded=0;orthogonalLoop=1;jettySize=auto;elbow=vertical;html=1;exitX=1;exitY=0.5;exitDx=0;exitDy=0;labelBackgroundColor=none;strokeColor=#09555B;fontColor=default;" edge="1" parent="1" source="ZZylFMLrcl4kth04YLES-6" target="ZZylFMLrcl4kth04YLES-7">
          <mxGeometry relative="1" as="geometry" />
        </mxCell>
        <mxCell id="ZZylFMLrcl4kth04YLES-37" value="HAS-A" style="edgeLabel;html=1;align=center;verticalAlign=middle;resizable=0;points=[];rounded=0;labelBackgroundColor=none;fontColor=#1A1A1A;" vertex="1" connectable="0" parent="ZZylFMLrcl4kth04YLES-36">
          <mxGeometry x="-0.1063" y="1" relative="1" as="geometry">
            <mxPoint x="4" y="-7" as="offset" />
          </mxGeometry>
        </mxCell>
        <mxCell id="ZZylFMLrcl4kth04YLES-6" value="class BankRBI{&lt;div&gt;static{&lt;/div&gt;&lt;div&gt;&amp;nbsp; &amp;nbsp; &amp;nbsp; &amp;nbsp; &amp;nbsp; &amp;nbsp; &amp;nbsp; &amp;nbsp; &amp;nbsp; &amp;nbsp; &amp;nbsp;sop(.....);&lt;/div&gt;&lt;div&gt;}&lt;/div&gt;&lt;div&gt;&amp;nbsp; &amp;nbsp; &amp;nbsp; &amp;nbsp; &amp;nbsp;BankRBI(){&lt;/div&gt;&lt;div&gt;&lt;br&gt;&lt;/div&gt;&lt;div&gt;}&lt;/div&gt;&lt;div&gt;&amp;nbsp; &amp;nbsp; &amp;nbsp; &amp;nbsp; &amp;nbsp; &amp;nbsp; &amp;nbsp; &amp;nbsp; &amp;nbsp; &amp;nbsp; &amp;nbsp;BankRBI(int p,int r){&lt;/div&gt;&lt;div&gt;&amp;nbsp; &amp;nbsp; &amp;nbsp; &amp;nbsp; &amp;nbsp; &amp;nbsp; &amp;nbsp; &amp;nbsp; &amp;nbsp; &amp;nbsp; &amp;nbsp;sop(....);&lt;/div&gt;&lt;div&gt;}&lt;/div&gt;&lt;div&gt;public static final getDetails(){&lt;/div&gt;&lt;div&gt;&amp;nbsp; &amp;nbsp; &amp;nbsp; &amp;nbsp; &amp;nbsp; &amp;nbsp; &amp;nbsp; &amp;nbsp; &amp;nbsp; &amp;nbsp; sop(....);&lt;/div&gt;&lt;div&gt;}&lt;/div&gt;" style="rounded=0;whiteSpace=wrap;html=1;labelBackgroundColor=none;fillColor=#FAD9D5;strokeColor=#D0CEE2;fontColor=#1A1A1A;" vertex="1" parent="1">
          <mxGeometry x="310" y="305" width="197.5" height="330" as="geometry" />
        </mxCell>
        <mxCell id="ZZylFMLrcl4kth04YLES-7" value="Class EmployeeInformation extends BankRBI implements EmployeeInterface{&lt;div&gt;//Attributes&lt;/div&gt;&lt;div&gt;//Interface override Methods&lt;/div&gt;&lt;div&gt;//Abstract&amp;nbsp; class implementation&lt;/div&gt;&lt;div&gt;psvm(String[] args){&lt;/div&gt;&lt;div&gt;//Abstract class&lt;/div&gt;&lt;div&gt;//calling BankRBI with HAS-A&lt;/div&gt;&lt;div&gt;&lt;span style=&quot;background-color: initial;&quot;&gt;}&lt;/span&gt;&lt;/div&gt;&lt;div&gt;&lt;div&gt;&lt;br&gt;&lt;/div&gt;&lt;/div&gt;" style="rounded=0;whiteSpace=wrap;html=1;labelBackgroundColor=none;fillColor=#FAD9D5;strokeColor=#D0CEE2;fontColor=#1A1A1A;" vertex="1" parent="1">
          <mxGeometry x="602.5" y="302" width="180" height="330" as="geometry" />
        </mxCell>
        <mxCell id="ZZylFMLrcl4kth04YLES-8" value="&lt;b&gt;&lt;font style=&quot;font-size: 20px;&quot;&gt;EmployeeInterface&lt;/font&gt;&lt;/b&gt;" style="text;html=1;align=center;verticalAlign=middle;resizable=0;points=[];autosize=1;strokeColor=none;fillColor=none;rounded=0;labelBackgroundColor=none;fontColor=#1A1A1A;" vertex="1" parent="1">
          <mxGeometry x="52.5" y="420" width="200" height="40" as="geometry" />
        </mxCell>
        <mxCell id="ZZylFMLrcl4kth04YLES-9" value="&lt;b&gt;&lt;font style=&quot;font-size: 20px;&quot;&gt;BankRBI&lt;/font&gt;&lt;/b&gt;" style="text;html=1;align=center;verticalAlign=middle;resizable=0;points=[];autosize=1;strokeColor=none;fillColor=none;rounded=0;labelBackgroundColor=none;fontColor=#1A1A1A;" vertex="1" parent="1">
          <mxGeometry x="388.75" y="628" width="110" height="40" as="geometry" />
        </mxCell>
        <mxCell id="ZZylFMLrcl4kth04YLES-11" value="&lt;b&gt;&lt;font style=&quot;font-size: 20px;&quot;&gt;EmployeeInformation&lt;/font&gt;&lt;/b&gt;" style="text;html=1;align=center;verticalAlign=middle;resizable=0;points=[];autosize=1;strokeColor=none;fillColor=none;rounded=0;labelBackgroundColor=none;fontColor=#1A1A1A;" vertex="1" parent="1">
          <mxGeometry x="580.5" y="625" width="230" height="40" as="geometry" />
        </mxCell>
        <mxCell id="ZZylFMLrcl4kth04YLES-12" value="&lt;b&gt;&lt;font style=&quot;font-size: 20px;&quot;&gt;BankAccountDetails&lt;/font&gt;&lt;/b&gt;" style="text;html=1;align=center;verticalAlign=middle;resizable=0;points=[];autosize=1;strokeColor=none;fillColor=none;rounded=0;labelBackgroundColor=none;fontColor=#1A1A1A;" vertex="1" parent="1">
          <mxGeometry x="43.5" y="614" width="220" height="40" as="geometry" />
        </mxCell>
        <mxCell id="ZZylFMLrcl4kth04YLES-20" value="" style="endArrow=none;html=1;rounded=0;elbow=vertical;exitX=0.5;exitY=0;exitDx=0;exitDy=0;labelBackgroundColor=none;strokeColor=#09555B;fontColor=default;" edge="1" parent="1" source="ZZylFMLrcl4kth04YLES-1">
          <mxGeometry width="50" height="50" relative="1" as="geometry">
            <mxPoint x="213.5" y="320" as="sourcePoint" />
            <mxPoint x="151" y="290" as="targetPoint" />
          </mxGeometry>
        </mxCell>
        <mxCell id="ZZylFMLrcl4kth04YLES-21" value="" style="endArrow=none;html=1;rounded=0;elbow=vertical;labelBackgroundColor=none;strokeColor=#09555B;fontColor=default;" edge="1" parent="1">
          <mxGeometry width="50" height="50" relative="1" as="geometry">
            <mxPoint x="150" y="290" as="sourcePoint" />
            <mxPoint x="290" y="290" as="targetPoint" />
          </mxGeometry>
        </mxCell>
        <mxCell id="ZZylFMLrcl4kth04YLES-25" value="Implements" style="edgeLabel;html=1;align=center;verticalAlign=middle;resizable=0;points=[];rounded=0;labelBackgroundColor=none;fontColor=#1A1A1A;" vertex="1" connectable="0" parent="ZZylFMLrcl4kth04YLES-21">
          <mxGeometry x="-0.1121" y="1" relative="1" as="geometry">
            <mxPoint x="6" y="-9" as="offset" />
          </mxGeometry>
        </mxCell>
        <mxCell id="ZZylFMLrcl4kth04YLES-27" value="" style="endArrow=none;html=1;rounded=0;elbow=vertical;exitX=0.5;exitY=0;exitDx=0;exitDy=0;labelBackgroundColor=none;strokeColor=#09555B;fontColor=default;" edge="1" parent="1">
          <mxGeometry width="50" height="50" relative="1" as="geometry">
            <mxPoint x="130" y="480" as="sourcePoint" />
            <mxPoint x="130" y="460" as="targetPoint" />
          </mxGeometry>
        </mxCell>
        <mxCell id="ZZylFMLrcl4kth04YLES-28" value="" style="endArrow=none;html=1;rounded=0;elbow=vertical;labelBackgroundColor=none;strokeColor=#09555B;fontColor=default;" edge="1" parent="1">
          <mxGeometry width="50" height="50" relative="1" as="geometry">
            <mxPoint x="130" y="460" as="sourcePoint" />
            <mxPoint x="280" y="460" as="targetPoint" />
          </mxGeometry>
        </mxCell>
        <mxCell id="ZZylFMLrcl4kth04YLES-32" value="" style="endArrow=none;html=1;rounded=0;elbow=vertical;labelBackgroundColor=none;strokeColor=#09555B;fontColor=default;" edge="1" parent="1">
          <mxGeometry width="50" height="50" relative="1" as="geometry">
            <mxPoint x="280" y="710" as="sourcePoint" />
            <mxPoint x="280" y="460" as="targetPoint" />
          </mxGeometry>
        </mxCell>
        <mxCell id="ZZylFMLrcl4kth04YLES-33" value="" style="endArrow=none;html=1;rounded=0;elbow=vertical;labelBackgroundColor=none;strokeColor=#09555B;fontColor=default;" edge="1" parent="1">
          <mxGeometry width="50" height="50" relative="1" as="geometry">
            <mxPoint x="280" y="710" as="sourcePoint" />
            <mxPoint x="710" y="710" as="targetPoint" />
          </mxGeometry>
        </mxCell>
        <mxCell id="ZZylFMLrcl4kth04YLES-34" value="extends" style="edgeLabel;html=1;align=center;verticalAlign=middle;resizable=0;points=[];rounded=0;labelBackgroundColor=none;fontColor=#1A1A1A;" vertex="1" connectable="0" parent="ZZylFMLrcl4kth04YLES-33">
          <mxGeometry x="-0.1121" y="1" relative="1" as="geometry">
            <mxPoint x="40" y="-9" as="offset" />
          </mxGeometry>
        </mxCell>
        <mxCell id="ZZylFMLrcl4kth04YLES-35" value="" style="endArrow=classic;html=1;rounded=0;elbow=vertical;labelBackgroundColor=none;strokeColor=#09555B;fontColor=default;" edge="1" parent="1">
          <mxGeometry width="50" height="50" relative="1" as="geometry">
            <mxPoint x="710" y="654" as="sourcePoint" />
            <mxPoint x="710" y="654" as="targetPoint" />
            <Array as="points">
              <mxPoint x="710" y="710" />
            </Array>
          </mxGeometry>
        </mxCell>
        <mxCell id="ZZylFMLrcl4kth04YLES-38" value="" style="endArrow=none;html=1;rounded=0;elbow=vertical;labelBackgroundColor=none;strokeColor=#09555B;fontColor=default;" edge="1" parent="1">
          <mxGeometry width="50" height="50" relative="1" as="geometry">
            <mxPoint x="290" y="680" as="sourcePoint" />
            <mxPoint x="290" y="290" as="targetPoint" />
          </mxGeometry>
        </mxCell>
        <mxCell id="ZZylFMLrcl4kth04YLES-39" value="" style="endArrow=none;html=1;rounded=0;elbow=vertical;labelBackgroundColor=none;strokeColor=#09555B;fontColor=default;" edge="1" parent="1">
          <mxGeometry width="50" height="50" relative="1" as="geometry">
            <mxPoint x="290" y="680" as="sourcePoint" />
            <mxPoint x="680" y="680" as="targetPoint" />
          </mxGeometry>
        </mxCell>
        <mxCell id="ZZylFMLrcl4kth04YLES-40" value="extends" style="edgeLabel;html=1;align=center;verticalAlign=middle;resizable=0;points=[];rounded=0;labelBackgroundColor=none;fontColor=#1A1A1A;" vertex="1" connectable="0" parent="ZZylFMLrcl4kth04YLES-39">
          <mxGeometry x="-0.1121" y="1" relative="1" as="geometry">
            <mxPoint x="40" y="-9" as="offset" />
          </mxGeometry>
        </mxCell>
        <mxCell id="ZZylFMLrcl4kth04YLES-41" value="" style="endArrow=classic;html=1;rounded=0;elbow=vertical;labelBackgroundColor=none;strokeColor=#09555B;fontColor=default;" edge="1" parent="1">
          <mxGeometry width="50" height="50" relative="1" as="geometry">
            <mxPoint x="680" y="654" as="sourcePoint" />
            <mxPoint x="680" y="654" as="targetPoint" />
            <Array as="points">
              <mxPoint x="680" y="680" />
            </Array>
          </mxGeometry>
        </mxCell>
        <mxCell id="ZZylFMLrcl4kth04YLES-42" value="&lt;font style=&quot;font-size: 20px;&quot;&gt;&lt;b&gt;Application-3 Banking System&lt;/b&gt;&lt;/font&gt;" style="rounded=0;whiteSpace=wrap;html=1;strokeColor=#D0CEE2;fontColor=#1A1A1A;fillColor=#FAD9D5;" vertex="1" parent="1">
          <mxGeometry x="320" y="127" width="190" height="60" as="geometry" />
        </mxCell>
        <mxCell id="ZZylFMLrcl4kth04YLES-47" style="edgeStyle=orthogonalEdgeStyle;rounded=0;orthogonalLoop=1;jettySize=auto;html=1;exitX=1;exitY=0;exitDx=0;exitDy=0;exitPerimeter=0;entryX=0.5;entryY=0;entryDx=0;entryDy=0;strokeColor=#09555B;fontColor=#1A1A1A;" edge="1" parent="1">
          <mxGeometry relative="1" as="geometry">
            <mxPoint x="688.5" y="300.9999999999999" as="sourcePoint" />
            <mxPoint x="690.5" y="304" as="targetPoint" />
          </mxGeometry>
        </mxCell>
        <mxCell id="ZZylFMLrcl4kth04YLES-43" value="" style="strokeWidth=2;html=1;shape=mxgraph.flowchart.annotation_2;align=left;labelPosition=right;pointerEvents=1;strokeColor=#000000;fontColor=#1A1A1A;fillColor=#FAD9D5;rotation=90;" vertex="1" parent="1">
          <mxGeometry x="359" y="-32.5" width="112" height="551" as="geometry" />
        </mxCell>
        <mxCell id="ZZylFMLrcl4kth04YLES-45" style="edgeStyle=orthogonalEdgeStyle;rounded=0;orthogonalLoop=1;jettySize=auto;html=1;exitX=1;exitY=1;exitDx=0;exitDy=0;exitPerimeter=0;entryX=0.447;entryY=0.002;entryDx=0;entryDy=0;entryPerimeter=0;strokeColor=#09555B;fontColor=#1A1A1A;strokeWidth=2;" edge="1" parent="1" source="ZZylFMLrcl4kth04YLES-43" target="ZZylFMLrcl4kth04YLES-1">
          <mxGeometry relative="1" as="geometry" />
        </mxCell>
        <mxCell id="ZZylFMLrcl4kth04YLES-48" value="" style="endArrow=classic;html=1;rounded=0;strokeColor=#09555B;fontColor=#1A1A1A;entryX=0.543;entryY=0.004;entryDx=0;entryDy=0;entryPerimeter=0;strokeWidth=2;exitX=0.503;exitY=0.499;exitDx=0;exitDy=0;exitPerimeter=0;" edge="1" parent="1">
          <mxGeometry width="50" height="50" relative="1" as="geometry">
            <mxPoint x="414.55099999999993" y="243.3359999999999" as="sourcePoint" />
            <mxPoint x="416.24250000000006" y="306.31999999999994" as="targetPoint" />
          </mxGeometry>
        </mxCell>
      </root>
    </mxGraphModel>
  </diagram>
</mxfile>
